<svg xmlns="http://www.w3.org/2000/svg" viewBox="0 0 567 546"><defs><style>.a{fill:#050505;}.b{fill:none;}.c{fill:#0c0b0b;}.d{fill:#fff;}.e{fill:#bdc969;}</style></defs><path class="a" d="M531.25,385.87H375.75v-95h143.5a7,7,0,0,0,0-14H375.75V163.37c0-18.23-4.74-32.19-14.05-41.5H519.25a7,7,0,0,0,0-14h-108v-121a7,7,0,0,0-7-7,7,7,0,0,0-7,7v121h-223v-111a7,7,0,0,0-7-7,7,7,0,0,0-7,7v111H86.75v-120a7,7,0,0,0-7-7,7,7,0,0,0-7,7v120h-94.5a7,7,0,0,0-7,7,7,7,0,0,0,7,7h94.5v110.5c0,16.31,4.41,30.21,12.75,40.18,10.17,12.16,25.56,18.32,45.75,18.32h29v79h-165a7,7,0,0,0-7,7,7,7,0,0,0,7,7h165v126a7,7,0,0,0,14,0v-219h63v228a7,7,0,0,0,14,0v-83c0-25.23,10.76-36,36-36h74.5v113a7,7,0,0,0,14,0v-113h155.5a7,7,0,0,0,0-14Zm-400-109c-36.78,0-44.5-24.2-44.5-44.5V121.87h73.5v155Zm43-155h146c28.7,0,41.5,12.8,41.5,41.5v113.5H174.25Zm113,264c-15.56,0-27.62,3.92-36,11.55V290.87h110.5v95Z" transform="translate(28.75 20.13)"/><rect class="b" x="31.97" y="19.81" width="500" height="500"/><path d="M383.76,303.31c-.42-1.8,34.62.6,37.54.6s2.51,62.36,1.26,68.35-35.05,3.6-38-.6S384.43,306.21,383.76,303.31Z" transform="translate(28.75 20.13)"/><path d="M408,376.87c-8.45,0-22-1.48-24.18-4.64-2-2.84-1.69-24.83-1.14-51.11.18-8.58.35-16.67.15-17.59a1.17,1.17,0,0,1,.23-1c.43-.54,1.18-.92,6.95-.92,7,0,17.92.58,25.17,1,3.09.16,5.53.3,6.17.3a1.29,1.29,0,0,1,1,.51c1.68,2.07,2.12,19.51,2.18,33.77.07,14.42-.28,32-1,35.28C422.78,376.1,414.64,376.87,408,376.87Zm-23.13-73c.12,2.06,0,7.55-.19,17.29-.34,16.56-1,47.39.79,49.93,1.18,1.71,11.5,3.78,22.53,3.78,9,0,13.34-1.46,13.63-2.81,1.43-6.89,1.39-62-.71-67.16-1,0-3.1-.15-5.85-.29-6.79-.37-18.16-1-25.06-1A35.88,35.88,0,0,0,384.82,303.87Z" transform="translate(28.75 20.13)"/><path class="c" d="M417,11.45c-.45-2.2,37.64.74,40.81.74s2.72,76.27,1.36,83.6-38.09,4.4-41.26-.73S417.7,15,417,11.45Z" transform="translate(28.75 20.13)"/><path class="c" d="M443.27,101.2c-9.19,0-23.87-1.79-26.24-5.62-2.11-3.41-1.79-30.25-1.2-62.34.2-10.55.38-20.52.16-21.58a1.21,1.21,0,0,1,.25-1c.46-.56,1.33-1,7.47-1,7.56,0,19.47.71,27.36,1.19,3.36.2,6,.36,6.71.36a1.25,1.25,0,0,1,1,.49c1.84,2.22,2.32,23.52,2.4,41,.08,20.29-.38,39.71-1.05,43.28C459.32,100.29,450.51,101.2,443.27,101.2ZM418,11.94c.14,2.32,0,9.32-.2,21.34-.4,21.71-1.07,58.07.9,61.25,1.31,2.12,12.54,4.67,24.54,4.67,9.82,0,14.55-1.8,14.89-3.59,1.52-8.22,1.41-76.78-.82-82.43-1.08,0-3.38-.18-6.39-.36-7.38-.44-19.74-1.18-27.24-1.18A31.7,31.7,0,0,0,418,11.94Z" transform="translate(28.75 20.13)"/><path d="M184,135.69c-1.88,1.72.5,56.5,1,62s93,1.5,99,1.5,2-59.5,1.5-63S189.53,130.69,184,135.69Z" transform="translate(28.75 20.13)"/><path d="M297.53,135.53s.5,55.79.5,59.81,44.5,4,47,3,2.5-34.68,0-47.75S311.53,134,297.53,135.53Z" transform="translate(28.75 20.13)"/><path class="d" d="M302,149.81a.05.05,0,0,0,0,.1A.05.05,0,1,0,302,149.81Z" transform="translate(28.75 20.13)"/><path d="M11.74,302.34c-2.43,1.51.64,49.84,1.29,54.7s119.83,1.32,127.56,1.32,2.58-52.49,1.93-55.58S18.83,297.93,11.74,302.34Z" transform="translate(28.75 20.13)"/><path d="M14,356.64c1.19.65,8,2,43.3,2h0c25.68,0,56-.67,72.23-1,5.92-.13,9.83-.22,11.06-.22.1,0,.37,0,.75-.47,4.94-6.08,1.12-48.11.27-53.52-4.08-1.39-40-2.68-75.41-2.68-36.11,0-51.41,1.24-53.81,2.43C10.73,306.75,13.07,349.17,14,356.64Z" transform="translate(28.75 20.13)"/><path d="M184,211.17c-.5-1.44,41.5.48,45,.48s3,49.87,1.5,54.67-42,2.87-45.5-.48S184.84,213.49,184,211.17Z" transform="translate(28.75 20.13)"/><path d="M213,270.2c-10,0-26.1-1.16-28.69-3.64-2.25-2.16-2.26-15.55-1.46-41.15.21-6.73.41-13.09.2-13.94a1.06,1.06,0,0,1,.15-.95c.36-.51.63-.88,8.24-.88,8.32,0,21.45.46,30.13.77,3.86.14,6.65.24,7.43.24a1.54,1.54,0,0,1,1.26.7c3.51,4.78,2.43,51.32,1.2,55.27C231.21,267.5,230.37,270.2,213,270.2Zm-27.91-58.36c.11,1.75,0,5.69-.24,13.63-.38,12.2-1.17,37.6.84,39.65,1.46,1.39,14,3.08,27.31,3.08,12.9,0,16.32-1.58,16.55-2.18,1.68-5.36,1.65-49.54-.82-53.37-1.07,0-3.7-.11-7.23-.24-8.14-.29-21.78-.77-30.06-.77A58.91,58.91,0,0,0,185.12,211.84Z" transform="translate(28.75 20.13)"/><path d="M240.53,211.17c-.5-1.44,41.5.48,45,.48s3,49.87,1.5,54.67-42,2.87-45.5-.48S241.34,213.49,240.53,211.17Z" transform="translate(28.75 20.13)"/><path d="M269.53,270.2c-10,0-26.1-1.16-28.69-3.64-2.25-2.16-2.26-15.55-1.46-41.15.21-6.73.41-13.09.2-13.94a1.06,1.06,0,0,1,.15-.95c.36-.51.63-.88,8.24-.88,8.32,0,21.45.46,30.13.77,3.86.14,6.65.24,7.43.24a1.54,1.54,0,0,1,1.26.7c3.51,4.78,2.43,51.32,1.2,55.27C287.71,267.5,286.87,270.2,269.53,270.2Zm-27.91-58.36c.11,1.75,0,5.69-.24,13.63-.38,12.2-1.17,37.6.85,39.65,1.45,1.39,14,3.08,27.3,3.08,12.9,0,16.32-1.58,16.55-2.18,1.68-5.36,1.65-49.54-.82-53.37-1.07,0-3.7-.11-7.23-.24-8.14-.29-21.78-.77-30.06-.77A58.91,58.91,0,0,0,241.62,211.84Z" transform="translate(28.75 20.13)"/><path d="M181.15,302.89c-.46-2.48,38.64.83,41.9.83s2.79,86.21,1.39,94.5-39.1,5-42.35-.83S181.91,306.9,181.15,302.89Z" transform="translate(28.75 20.13)"/><path d="M182.2,303.32c.17,2.44,0,10.38-.19,24.25-.41,24.56-1.1,65.68,1,69.33,1.37,2.45,12.68,5.3,25.19,5.3,8.87,0,14.88-1.63,15.31-4.15,1.59-9.44,1.47-87.2-.87-93.34-1.11,0-3.47-.19-6.56-.4-7.58-.5-20.26-1.34-28-1.34A29.05,29.05,0,0,0,182.2,303.32Z" transform="translate(28.75 20.13)"/><path d="M435.23,303.31c-.52-1.8,43.8.6,47.49.6s3.17,62.36,1.58,68.35-44.32,3.6-48-.6S436.09,306.21,435.23,303.31Z" transform="translate(28.75 20.13)"/><path d="M465.83,376.87c-10.6,0-27.56-1.45-30.29-4.55-2.53-2.87-2.16-24.89-1.47-51.21.23-8.52.44-16.56.2-17.53a1.12,1.12,0,0,1,.19-1c.37-.49.72-1,8.62-1,8.78,0,22.64.58,31.8,1,4.07.17,7,.3,7.84.3a1.46,1.46,0,0,1,1.18.63c3.75,4.87,2.7,63.94,1.37,69C484.51,375.4,478,376.87,465.83,376.87Zm-29.52-73c.14,2,0,7-.24,17.27-.43,16.54-1.24,47.33,1,49.84,1.54,1.75,14.73,3.87,28.79,3.87,13.25,0,17.25-1.87,17.51-2.86,1.73-6.56,1.62-62.7-.93-67.11-1.13,0-3.91-.14-7.61-.29-8.6-.37-23-1-31.72-1A54.62,54.62,0,0,0,436.31,303.89Z" transform="translate(28.75 20.13)"/><path d="M181.15,457c-.46-.85,38.64.29,41.9.29s2.79,29.43,1.39,32.26-39.1,1.7-42.35-.28S181.91,458.32,181.15,457Z" transform="translate(28.75 20.13)"/><path d="M182.26,457.75c.05,1.18,0,3.37-.25,7.67-.32,6.46-1.06,21.59.61,22.95,1.35.82,13,1.83,25.53,1.83,10.77,0,14.73-.76,15.44-1.23,1.39-3.3,1.38-28.37-.71-30.74-.93,0-3.43-.06-6.81-.14-7.58-.17-20.28-.45-28-.45C184.71,457.64,183.06,457.69,182.26,457.75Z" transform="translate(28.75 20.13)"/><path d="M95.49,11.15c-.53-1.4,43.79.47,47.48.47s3.16,48.42,1.58,53.07-44.32,2.8-48-.46S96.34,13.4,95.49,11.15Z" transform="translate(28.75 20.13)"/><path d="M126.08,68.49c-10.57,0-27.48-1.11-30.2-3.51-2.39-2.11-2.4-15.13-1.56-40,.21-6.22.43-12.65.22-13.49a1.05,1.05,0,0,1,.13-1c.37-.54.61-.89,8.66-.89,8.78,0,22.63.45,31.79.75,4.08.14,7,.24,7.85.24a1.6,1.6,0,0,1,1.33.76c3.57,5,2.45,49.94,1.2,53.64C145.21,65.88,144.32,68.49,126.08,68.49ZM96.58,11.83c.11,1.74,0,5.57-.26,13.2-.4,11.85-1.23,36.5.88,38.45,1.55,1.36,14.78,3,28.88,3,13.49,0,17.23-1.53,17.53-2.13,1.67-4.92,1.59-48.27-.88-51.75-1.08,0-3.9-.1-7.68-.23-8.59-.28-23-.75-31.72-.75C99.2,11.63,97.38,11.74,96.58,11.83Z" transform="translate(28.75 20.13)"/><path d="M12.46,226.44c-.51-.74,42.33.24,45.9.24s3.06,25.59,1.53,28-42.84,1.47-46.41-.25S13.29,227.63,12.46,226.44Z" transform="translate(28.75 20.13)"/><path d="M42,257.21c-10.56,0-26.52-.64-29-1.83s-2.59-8-1.74-21.69a64,64,0,0,0,.25-6.83,1,1,0,0,1,0-.91c.35-.67.41-.79,8.46-.79,8.48,0,22.4.25,30.72.4,3.94.07,6.79.12,7.6.12A2.15,2.15,0,0,1,60.24,227c2.59,4.65,2.07,25.71.5,28.23C60.35,255.89,59.53,257.21,42,257.21ZM13.59,227.26c0,1.09-.07,3-.29,6.55-.32,5.16-1.16,18.84.62,19.77,1.55.75,14.18,1.63,28.11,1.63,11.88,0,16.27-.68,17.06-1.1,1.45-2.88,1.39-24.8-.8-26.43-.91,0-3.72-.05-7.57-.12-8.31-.15-22.21-.4-30.68-.4C16.29,227.16,14.47,227.21,13.59,227.26Z" transform="translate(28.75 20.13)"/><path d="M12.46,132.61c-.51-1.2,42.33.4,45.9.4s3.06,41.77,1.53,45.78-42.84,2.41-46.41-.4S13.29,134.55,12.46,132.61Z" transform="translate(28.75 20.13)"/><path d="M42,182.21c-10.22,0-26.55-1-29.18-3-2.35-1.86-2.37-13.13-1.55-34.66.2-5.31.41-10.8.21-11.58a1,1,0,0,1,.12-.93c.36-.55.55-.85,8.41-.85,8.48,0,21.87.39,30.72.65,3.94.12,6.79.2,7.59.2a1.68,1.68,0,0,1,1.4.83c3.12,4.53,2.65,42.15,1.06,46.31C60.51,180,59.66,182.21,42,182.21ZM13.56,133.33c.09,1.49,0,4.59-.25,11.26-.39,10.15-1.19,31.26.79,33,1.5,1.17,14.29,2.6,27.94,2.6,12.33,0,16.47-1.19,16.94-1.82,1.56-4.11,1.49-41.3-.83-44.38-1,0-3.77-.09-7.43-.2-8.31-.24-22.22-.65-30.67-.65C16.15,133.16,14.37,133.25,13.56,133.33Z" transform="translate(28.75 20.13)"/><path class="c" d="M467.72,11.45c-.26-2.2,21.3.74,23.1.74s1.54,76.27.77,83.6-21.56,4.4-23.36-.73S468.13,15,467.72,11.45Z" transform="translate(28.75 20.13)"/><path class="c" d="M482.6,101.2c-6.41,0-14.09-2.34-15.31-5.81s-1-31.29-.65-62.13c.12-11,.22-20.58.09-21.69a1.29,1.29,0,0,1,.33-1c.48-.54,1.42-.89,4.47-.89h0c4.32,0,11.09.72,15.56,1.19,1.81.19,3.37.36,3.73.36a1.2,1.2,0,0,1,.81.37c.43.47,1.43,1.58,1.54,40.45.06,20.23-.21,40.33-.59,43.89C492.23,99.27,488.59,101.2,482.6,101.2ZM468.75,11.84c.09,2.14,0,9.46-.11,21.44-.23,21.76-.61,58.18.54,61.45C470,97,476.62,99.2,482.6,99.2c1.79,0,7.65-.25,8-3.51.87-8.32.8-75.87-.45-82.54-.65-.05-1.69-.16-3.27-.33-4.16-.44-11.13-1.18-15.35-1.18A12.48,12.48,0,0,0,468.75,11.84Z" transform="translate(28.75 20.13)"/><path d="M297,211.17c-.5-1.44,41.5.48,45,.48s3,49.87,1.5,54.67-42,2.87-45.5-.48S297.84,213.49,297,211.17Z" transform="translate(28.75 20.13)"/><path d="M326,270.2c-10,0-26.1-1.16-28.69-3.64-2.25-2.16-2.26-15.55-1.46-41.15.21-6.73.41-13.09.2-13.94a1.06,1.06,0,0,1,.15-.95c.36-.51.63-.88,8.24-.88,8.32,0,21.45.46,30.13.77,3.86.14,6.65.24,7.43.24a1.54,1.54,0,0,1,1.26.7c3.51,4.78,2.43,51.32,1.2,55.27C344.21,267.5,343.37,270.2,326,270.2Zm-27.91-58.36c.11,1.75,0,5.69-.24,13.63-.38,12.2-1.17,37.6.85,39.65,1.45,1.39,13.95,3.08,27.3,3.08,12.9,0,16.32-1.58,16.55-2.18,1.68-5.36,1.65-49.54-.82-53.37-1.07,0-3.7-.11-7.23-.24-8.14-.29-21.78-.77-30.06-.77A58.91,58.91,0,0,0,298.12,211.84Z" transform="translate(28.75 20.13)"/><path d="M278,416.86c-15.94,0-17.66,20.17-17.66,28.84v38c.49.88,6.33,2.22,17.75,2.22h0c11.78,0,20.76-1.45,21.76-2.81,2.22-3,1.1-43.43.68-58.65-.09-3.38-.17-6-.19-7.58Z" transform="translate(28.75 20.13)"/><path d="M266,15.86c-6.28,7.18-4.66,70.67-3.33,74s37.33,2,42,1.33,2-69.85,2-76C306.7,9.86,270.7,10.53,266,15.86Z" transform="translate(28.75 20.13)"/><path d="M282.45,92.78c-19.39,0-20.13-1.85-20.45-2.64-1.29-3.22-3.29-67,3.47-74.77,2.77-3.17,14.6-4.61,24.43-4.61,5.27,0,17.55.43,17.55,4.43,0,1,.07,3.47.16,7,1.49,57.37,0,69.39-2.8,69.79C302.46,92.27,292.35,92.78,282.45,92.78Zm7.45-80.52c-11.24,0-21.26,1.76-23.3,4.1C260.79,23,262,86.2,263.4,89.58c.11.16,1.67,1.7,19.05,1.7,9.49,0,19.82-.5,22.14-.83,2.12-1.52,2.66-24.5,1.52-68.26-.09-3.5-.16-6-.16-7C306,14,301,12.26,289.9,12.26Z" transform="translate(28.75 20.13)"/><path d="M384,245.19c-4.9,2.11,0,19.34,1.34,22.67s46,4.67,50,.67S440,251.19,438,245.86,388.7,243.19,384,245.19Z" transform="translate(28.75 20.13)"/><path d="M414.06,271.74c-.28,0-28,0-29.39-3.6-1-2.56-6.76-21.14-.93-23.64,2.92-1.25,19.61-2.52,33.07-2.52,20.57,0,21.59,2.72,21.92,3.62,2.07,5.51,1.45,19.18-2.83,23.46C433.56,271.4,421.21,271.74,414.06,271.74Zm2.75-28.26c-13.84,0-30,1.35-32.48,2.4-3.83,1.64-.18,16.93,1.73,21.7,1,1.24,13.17,2.66,28,2.66,13.67,0,19.74-1.21,20.78-2.24,3.78-3.78,4.34-16.95,2.49-21.87C437.23,245.85,435.79,243.48,416.81,243.48Z" transform="translate(28.75 20.13)"/><path d="M322.15,303.19c-2.11,2.11,0,19.34.57,22.67s19.74,4.67,21.46.67,2-17.34,1.14-22.67S324.15,301.19,322.15,303.19Z" transform="translate(28.75 20.13)"/><path d="M336.22,301.48c-6.13,0-12.67,1.38-13.54,2.24-1.54,1.54-.18,16.4.78,22,.17,1,5.11,2.51,11.57,2.51,5.25,0,8-1,8.46-2,1.69-3.93,1.92-17.11,1.09-22.25C344.33,302.41,341.2,301.48,336.22,301.48Z" transform="translate(28.75 20.13)"/><path d="M86.75,397.19c-5,2.11,0,19.34,1.36,22.67s47.08,4.67,51.17.67,4.77-17.34,2.73-22.67S91.52,395.19,86.75,397.19Z" transform="translate(28.75 20.13)"/><path d="M120.29,395.48c-14.55,0-30.72,1.35-33.25,2.41-3.92,1.64-.18,16.92,1.77,21.69,1,1.23,13.48,2.66,28.66,2.66,14,0,20.22-1.21,21.28-2.25,3.87-3.78,4.45-16.93,2.56-21.86C141.2,397.86,139.73,395.48,120.29,395.48Z" transform="translate(28.75 20.13)"/><path d="M286.51,353.5c-2.1-2.11-19.33,0-22.66.57s-4.67,19.74-.67,21.46,17.33,2,22.67,1.14S288.51,355.5,286.51,353.5Z" transform="translate(28.75 20.13)"/><path d="M280.81,353.33A131.3,131.3,0,0,0,264,354.81c-.47.08-1.64,1.87-2.23,6.86-.75,6.3.07,12.45,1.74,13.17,2.49,1.07,9,1.55,14.33,1.55h0a55.65,55.65,0,0,0,7.91-.46c.74-.12,1.33-.87,1.77-2.22,1.91-5.87-.28-18.44-1.52-19.68C285.87,353.91,285.07,353.33,280.81,353.33Z" transform="translate(28.75 20.13)"/><path d="M56,68.35V86.86c0,5.82-2.57,10.58-13.9,10.58s-23.18,2.12-25.24,0-1.54-25.92-1.54-28S51.91,67.29,56,68.35Z" transform="translate(28.75 20.13)"/><path d="M21.83,99.13c-3,0-4.68-.35-5.47-1.17-1-1-2-5-1.77-27.34,0-.59,0-1,0-1.22,0-.81,0-2.5,24.52-2.5,7.12,0,15.17.22,17.1.72a.75.75,0,0,1,.56.73V86.86c0,7.73-4.65,11.33-14.65,11.33-4.15,0-8.41.29-12.16.54C26.94,98.94,24.08,99.13,21.83,99.13ZM16.1,69.7c0,.23,0,.55,0,.94-.27,22.2.85,25.77,1.34,26.28.32.32,1.34.71,4.4.71,2.2,0,5-.19,8-.4,3.78-.25,8.06-.54,12.26-.54,11.59,0,13.15-5,13.15-9.83V69a156,156,0,0,0-16.16-.57C25.86,68.4,17.56,69.05,16.1,69.7Z" transform="translate(28.75 20.13)"/><path class="e" d="M457,268.52l-.33,1s0,0,0,0c.11-.33.22-.66.34-1C457.06,268.51,457,268.49,457,268.52Z" transform="translate(28.75 20.13)"/><path class="e" d="M316.37,302.81a.05.05,0,1,0,0,.1A.05.05,0,0,0,316.37,302.81Z" transform="translate(28.75 20.13)"/><path class="e" d="M298,350.19c-.11.33-.22.66-.34,1a0,0,0,0,0,.08,0c.11-.33.21-.66.32-1C298.08,350.16,298,350.15,298,350.19Z" transform="translate(28.75 20.13)"/><path class="e" d="M350.7,344.48a.05.05,0,1,0,0,.1A.05.05,0,0,0,350.7,344.48Z" transform="translate(28.75 20.13)"/><path class="e" d="M86.37,435.14a.05.05,0,1,0,0,.1A.05.05,0,0,0,86.37,435.14Z" transform="translate(28.75 20.13)"/><path d="M95.08,77.85c-.21-.51,17.4.18,18.87.18s1.26,17.92.63,19.64S97,98.7,95.5,97.5,95.42,78.69,95.08,77.85Z" transform="translate(28.75 20.13)"/><path d="M107.24,99.71c-2.76,0-10.95-.27-12.38-1.44C93.79,97.39,93.61,94.1,94,83c.08-2.15.16-4.36.1-4.82a1,1,0,0,1,.14-.86c.35-.51.7-.61,4-.61,3.5,0,9,.17,12.65.28L114,77a1.23,1.23,0,0,1,1,.58c1.49,2.13,1.15,18.7.53,20.4C115.29,98.65,114.9,99.71,107.24,99.71Zm-11-3c.84.38,5.52,1,11,1,4.09,0,5.92-.34,6.45-.57.45-2.18.6-15.56-.23-18.12l-2.67-.08c-3.41-.1-9.12-.28-12.59-.28-1,0-1.66,0-2.07,0,0,.77,0,2-.12,4.32C95.87,87,95.56,95.33,96.19,96.75Z" transform="translate(28.75 20.13)"/><path d="M12.46,188.94c-.51-.74,42.33.24,45.9.24s3.06,25.59,1.53,28S17.05,218.7,13.48,217,13.29,190.13,12.46,188.94Z" transform="translate(28.75 20.13)"/><path d="M42,219.71c-10.56,0-26.52-.64-29-1.83s-2.59-8-1.74-21.69a64,64,0,0,0,.25-6.83,1,1,0,0,1,0-.91c.35-.67.41-.79,8.46-.79,8.48,0,22.4.25,30.72.4,3.94.07,6.79.12,7.6.12a2.15,2.15,0,0,1,1.88,1.34c2.59,4.65,2.07,25.71.5,28.23C60.35,218.39,59.53,219.71,42,219.71Zm-28.44-30c0,1.09-.07,3-.29,6.55-.32,5.16-1.16,18.84.62,19.77,1.55.75,14.18,1.63,28.11,1.63,11.88,0,16.27-.68,17.06-1.1,1.45-2.88,1.39-24.8-.8-26.43-.91,0-3.72-.05-7.57-.12-8.31-.15-22.21-.4-30.68-.4C16.29,189.66,14.47,189.71,13.59,189.76Z" transform="translate(28.75 20.13)"/><path d="M45.58,268.85c-.21-.51,17.4.18,18.87.18s1.26,17.92.63,19.64-17.62,1-19.08-.17S45.92,269.69,45.58,268.85Z" transform="translate(28.75 20.13)"/><path d="M57.74,290.71c-2.76,0-11-.27-12.38-1.44-1.07-.88-1.25-4.17-.85-15.32.08-2.15.16-4.36.1-4.82a1,1,0,0,1,.14-.86c.35-.51.7-.61,4-.61,3.5,0,9,.17,12.65.28l3.1.09a1.23,1.23,0,0,1,1,.58c1.49,2.13,1.15,18.7.53,20.4C65.79,289.65,65.4,290.71,57.74,290.71Zm-11.05-3c.84.38,5.52,1,11.05,1,4.09,0,5.92-.34,6.45-.57.45-2.18.6-15.56-.23-18.12l-2.67-.08c-3.41-.1-9.12-.28-12.59-.28-1,0-1.66,0-2.07,0,0,.77,0,2.05-.12,4.32C46.37,278,46.06,286.33,46.69,287.75Z" transform="translate(28.75 20.13)"/><path d="M181.15,413c-.46-.85,38.64.29,41.9.29s2.79,29.43,1.39,32.26-39.1,1.7-42.35-.28S181.91,414.32,181.15,413Z" transform="translate(28.75 20.13)"/><path d="M182.26,413.75c.05,1.18,0,3.37-.25,7.67-.32,6.46-1.06,21.59.61,22.95,1.35.82,13,1.83,25.53,1.83,10.77,0,14.73-.76,15.44-1.23,1.39-3.3,1.38-28.37-.71-30.74-.93,0-3.43-.06-6.81-.14-7.58-.17-20.28-.45-28-.45C184.71,413.64,183.06,413.69,182.26,413.75Z" transform="translate(28.75 20.13)"/><path d="M309.49,415.87c.12,2.06,0,7.55-.19,17.29-.35,16.56-1,47.39.78,49.93,1.19,1.71,11.51,3.78,22.54,3.78,9,0,13.34-1.46,13.62-2.81,1.44-6.89,1.4-62-.7-67.16-1,0-3.11-.15-5.85-.29-6.8-.37-18.16-1-25.06-1A35.88,35.88,0,0,0,309.49,415.87Z" transform="translate(28.75 20.13)"/></svg>